<svg id="Layer_1" data-name="Layer 1" xmlns="http://www.w3.org/2000/svg" viewBox="0 0 363.73 512"><title>adviser</title><path d="M528.73,161V125.2A115.33,115.33,0,0,0,413.53,10H362.34A115.33,115.33,0,0,0,247.13,125.2v83.55a35.25,35.25,0,0,0,27,34.23,114.36,114.36,0,0,0,64.72,94.19v2.25A35.57,35.57,0,0,1,303.21,375a88,88,0,0,0-88.08,88.08v50.41a8.54,8.54,0,0,0,17.07,0V463.06a71,71,0,0,1,71-71,53.15,53.15,0,0,0,11.15-1.19l11.91,54A8.53,8.53,0,0,0,341,448.66l16.81-19.36-10.38,83.11a8.53,8.53,0,1,0,16.93,2.11l12-96c5.76,6.41,5.65,6.37,6.72,7.1a8.6,8.6,0,0,0,3.16,1.32,10.43,10.43,0,0,0,1.64.17c4.77,0,6.48-3,11.51-8.76l12,96.21a8.53,8.53,0,1,0,16.93-2.11L418,429.3l16.81,19.36a8.54,8.54,0,0,0,14.78-3.76l11.91-54a53.41,53.41,0,0,0,11.15,1.19,71,71,0,0,1,71,71v50.41a8.53,8.53,0,1,0,17.06,0V463.06A88,88,0,0,0,472.66,375a35.45,35.45,0,0,1-30.5-17.12,8.54,8.54,0,1,0-14.58,8.88,52.64,52.64,0,0,0,17.85,17.79l-8.84,40.13-21.33-24.55c4-4.54,2.84-9.73-.39-12.55a8.53,8.53,0,0,0-12,.84l-15,17.25-37.79-42a52,52,0,0,0,5.72-20C428.62,365.09,501.48,310.4,502.06,235c0-.37,0-60.59,0-61.29a8.54,8.54,0,0,0-8.51-8c-1.46,0-12,2.08-22.26-4.11-16.06-9.66-16.14-30.82-16.14-31a8.53,8.53,0,0,0-13.46-7,275,275,0,0,1-121,48,8.54,8.54,0,0,0,1.17,17c1.07,0,59-5.45,118.35-43.44,6.29,23.63,24,36.73,44.8,37.92v51.08a97.17,97.17,0,0,1-97.07,97.07c-50.09,0-97.06-38.94-97.06-100.4V174.27a8.54,8.54,0,1,0-17.07,0v50.48a18.17,18.17,0,0,1-9.6-16V125.21a98.24,98.24,0,0,1,98.14-98.14h51.19a98.25,98.25,0,0,1,98.14,98.13v83.55a8.53,8.53,0,1,0,17.06,0v-30.4a41.67,41.67,0,0,1,33.07,40.72v99.2h-9.6a57.48,57.48,0,0,1-44.33-20.82,8.53,8.53,0,1,0-13.12,10.91,74.48,74.48,0,0,0,57.45,27h18.13a8.54,8.54,0,0,0,8.54-8.53V219.07a58.75,58.75,0,0,0-50.14-58ZM339.28,424.66l-8.84-40.15a52.48,52.48,0,0,0,9.11-7l20.69,23Z" transform="translate(-215.13 -10)"/></svg>