<svg id="Layer_1" data-name="Layer 1" xmlns="http://www.w3.org/2000/svg" viewBox="0 0 722.05 513.48"><title>adviser-x2</title><path d="M355.2,162.93V127.1A115.33,115.33,0,0,0,240,11.9H188.8A115.33,115.33,0,0,0,73.6,127.11v83.55a35.25,35.25,0,0,0,27,34.23,114.32,114.32,0,0,0,64.71,94.18v2.25a35.57,35.57,0,0,1-35.65,35.56A88,88,0,0,0,41.6,465v50.41a8.54,8.54,0,0,0,17.07,0V465a71,71,0,0,1,71-71,53.2,53.2,0,0,0,11.15-1.18l11.9,54a8.54,8.54,0,0,0,14.78,3.76l16.81-19.35-10.39,83.1a8.54,8.54,0,0,0,16.94,2.12l12-96c5.77,6.41,5.66,6.37,6.73,7.1a8.62,8.62,0,0,0,3.16,1.33,11,11,0,0,0,1.64.16c4.77,0,6.47-3,11.51-8.76l12,96.22a8.54,8.54,0,0,0,16.94-2.12l-10.39-83.1,16.81,19.35a8.54,8.54,0,0,0,14.78-3.76l11.91-54A54.06,54.06,0,0,0,299.12,394a71,71,0,0,1,71,71v50.41a8.53,8.53,0,1,0,17.06,0V465a88,88,0,0,0-88.08-88.07,35.46,35.46,0,0,1-30.5-17.13,8.53,8.53,0,0,0-14.57,8.88,52.64,52.64,0,0,0,17.85,17.79l-8.85,40.13L241.73,402c4-4.54,2.84-9.73-.4-12.55a8.53,8.53,0,0,0-12,.84l-15,17.26-37.79-42a52.22,52.22,0,0,0,5.72-20C255.09,367,328,312.3,328.53,236.93c0-.37,0-60.58,0-61.28a8.53,8.53,0,0,0-8.51-8c-1.46,0-12,2.08-22.27-4.12-16.05-9.65-16.13-30.82-16.13-31a8.54,8.54,0,0,0-13.46-7,275.06,275.06,0,0,1-121,48,8.54,8.54,0,0,0,1.18,17c1.06,0,59-5.44,118.34-43.43,6.3,23.63,24,36.73,44.81,37.91V236A97.17,97.17,0,0,1,214.4,333.1c-50.09,0-97.06-38.93-97.06-100.4V176.17a8.54,8.54,0,0,0-17.07,0v50.48a18.15,18.15,0,0,1-9.6-16V127.11A98.24,98.24,0,0,1,188.8,29H240a98.24,98.24,0,0,1,98.13,98.13v83.56a8.54,8.54,0,0,0,17.07,0V180.25A41.67,41.67,0,0,1,388.27,221v99.2h-9.6a57.48,57.48,0,0,1-44.33-20.82,8.54,8.54,0,0,0-13.13,10.91,74.53,74.53,0,0,0,57.46,27H396.8a8.53,8.53,0,0,0,8.53-8.54V221a58.75,58.75,0,0,0-50.13-58ZM165.75,426.56l-8.85-40.14a53.16,53.16,0,0,0,9.12-7l20.69,23Z" transform="translate(-41.6 -11.9)"/><path d="M675.57,378.37a35.45,35.45,0,0,1-30.5-17.12,8.53,8.53,0,1,0-14.57,8.87,52.7,52.7,0,0,0,17.84,17.79L639.5,428l-21.32-24.55c3.88-4.46,2.93-9.65-.4-12.55a8.54,8.54,0,0,0-12,.84l-15,17.26-37.8-42a52.06,52.06,0,0,0,5.73-20C631.82,368.56,705,313.35,705,237.52c0-72.35.09-71.22-.2-74.19a8.55,8.55,0,1,0-17,1.68c.19,1.93.13,3.6.13,72.51a97.07,97.07,0,1,1-194.14,0c0-19.07-.2-33.52-.27-45.27a43.43,43.43,0,0,1,53.75-42.57c39.54,9.49,55.46,34.14,106.11,31.77a8.53,8.53,0,1,0-.8-17c-45.84,2.14-58.15-21-101.33-31.32a60.47,60.47,0,0,0-74.79,59.26c.05,8.53.17,18.84.23,31.25A17.6,17.6,0,0,1,467.12,208v-104a20.28,20.28,0,0,1,20.26-20.26,8.55,8.55,0,0,0,7.93-5.37,75.93,75.93,0,0,1,70.85-48h72.69a76.88,76.88,0,0,1,76.8,76.8V208a8.54,8.54,0,0,0,17.07,0V107.25a94,94,0,0,0-93.87-93.86H566.16a92.87,92.87,0,0,0-84.57,53.78,37.4,37.4,0,0,0-31.54,36.88V208a34.83,34.83,0,0,0,26.75,33.73,114.32,114.32,0,0,0,65,98.82v2.24A35.27,35.27,0,0,1,531.34,368c-11.94,11.9-27,10.41-25.21,10.41a88,88,0,0,0-88.08,88.07v50.41a8.54,8.54,0,0,0,17.07,0V466.44a71,71,0,0,1,71-71,53.2,53.2,0,0,0,11.15-1.18l11.9,54A8.55,8.55,0,0,0,544,452.05l16.81-19.36-10.39,83.1a8.54,8.54,0,0,0,16.94,2.12l12-96c.53.59,5.3,5.93,5.89,6.45a8.54,8.54,0,0,0,12-.75l5.11-5.88,12,96.22a8.54,8.54,0,1,0,16.94-2.12l-10.39-83.1,16.81,19.36a8.54,8.54,0,0,0,14.78-3.76l11.9-54a53.55,53.55,0,0,0,11.15,1.19,71,71,0,0,1,71,71v50.41a8.54,8.54,0,0,0,17.07,0V466.44a88,88,0,0,0-88.08-88.07ZM542.2,428l-8.85-40.14a53.16,53.16,0,0,0,9.12-7l20.69,23Z" transform="translate(-41.6 -11.9)"/></svg>