<svg id="Layer_1" data-name="Layer 1" xmlns="http://www.w3.org/2000/svg" viewBox="0 0 1029.1 876.93"><title>adviser-x3</title><path d="M474.8,526.55V490.72a115.33,115.33,0,0,0-115.2-115.2H308.4A115.33,115.33,0,0,0,193.2,490.73v83.55a35.26,35.26,0,0,0,27,34.23,114.35,114.35,0,0,0,64.72,94.18v2.25a35.57,35.57,0,0,1-35.66,35.56,88,88,0,0,0-88.07,88.08V879a8.53,8.53,0,0,0,17.06,0V828.58a71,71,0,0,1,71-71,53.73,53.73,0,0,0,11.15-1.18l11.91,54a8.54,8.54,0,0,0,14.78,3.76l16.81-19.35-10.39,83.1a8.53,8.53,0,0,0,16.93,2.12l12-96c5.77,6.41,5.66,6.37,6.72,7.1a8.84,8.84,0,0,0,3.17,1.33,10.94,10.94,0,0,0,1.64.16c4.77,0,6.47-3,11.5-8.76l12,96.22a8.53,8.53,0,0,0,16.93-2.12l-10.38-83.1,16.81,19.35a8.53,8.53,0,0,0,14.77-3.76l11.91-54a53.48,53.48,0,0,0,11.15,1.19,71,71,0,0,1,71,71V879a8.54,8.54,0,0,0,17.07,0V828.58a88,88,0,0,0-88.08-88.07,35.44,35.44,0,0,1-30.5-17.13,8.54,8.54,0,0,0-14.58,8.88,52.82,52.82,0,0,0,17.85,17.79l-8.84,40.13-21.32-24.55c3.95-4.54,2.84-9.73-.4-12.55a8.54,8.54,0,0,0-12,.84l-15,17.26-37.8-42a52.06,52.06,0,0,0,5.73-20c72.87,21.45,145.72-33.24,146.31-108.61,0-.37,0-60.59,0-61.28a8.52,8.52,0,0,0-8.5-8c-1.47,0-12,2.08-22.27-4.12-16.05-9.65-16.13-30.82-16.13-31a8.55,8.55,0,0,0-13.47-7,275,275,0,0,1-121,48,8.54,8.54,0,0,0,1.17,17c1.07,0,59-5.44,118.35-43.43,6.3,23.63,24,36.73,44.8,37.91v51.09A97.17,97.17,0,0,1,334,696.72c-50.1,0-97.07-38.93-97.07-100.4V539.79a8.54,8.54,0,0,0-17.07,0v50.48a18.16,18.16,0,0,1-9.59-16V490.73a98.24,98.24,0,0,1,98.13-98.14h51.2a98.24,98.24,0,0,1,98.13,98.13v83.56a8.54,8.54,0,0,0,17.07,0V543.87a41.67,41.67,0,0,1,33.06,40.72v99.2h-9.6A57.46,57.46,0,0,1,453.94,663a8.54,8.54,0,0,0-13.13,10.91,74.51,74.51,0,0,0,57.45,27H516.4a8.54,8.54,0,0,0,8.53-8.54V584.59a58.76,58.76,0,0,0-50.13-58ZM285.35,790.18,276.5,750a53.37,53.37,0,0,0,9.12-7l20.69,23Z" transform="translate(-161.2 -12.08)"/><path d="M1102.22,742a35.45,35.45,0,0,1-30.5-17.12,8.53,8.53,0,1,0-14.57,8.87A52.64,52.64,0,0,0,1075,751.53l-8.85,40.13-21.32-24.55c3.88-4.46,2.93-9.65-.4-12.55a8.54,8.54,0,0,0-12,.84l-15,17.26-37.79-42a52.22,52.22,0,0,0,5.72-20c73.15,21.53,146.31-33.68,146.31-109.51,0-72.35.09-71.22-.2-74.19a8.55,8.55,0,1,0-17,1.68c.2,1.93.13,3.6.13,72.51a97.07,97.07,0,1,1-194.14,0c0-19.08-.2-33.52-.27-45.27a43.43,43.43,0,0,1,53.75-42.57c39.54,9.48,55.46,34.14,106.12,31.77a8.53,8.53,0,0,0-.8-17c-45.85,2.14-58.16-21-101.34-31.32A60.47,60.47,0,0,0,903.1,556c0,8.53.17,18.84.23,31.25a17.6,17.6,0,0,1-9.56-15.59v-104A20.29,20.29,0,0,1,914,447.4,8.54,8.54,0,0,0,922,442a75.94,75.94,0,0,1,70.85-48h72.69a76.88,76.88,0,0,1,76.8,76.8V571.63a8.54,8.54,0,0,0,17.07,0V470.87A94,94,0,0,0,1065.5,377H992.81a92.88,92.88,0,0,0-84.57,53.79,37.4,37.4,0,0,0-31.54,36.88v104a34.83,34.83,0,0,0,26.75,33.73,114.32,114.32,0,0,0,65,98.82v2.24A35.27,35.27,0,0,1,958,731.58C946.06,743.48,931,742,932.78,742a88,88,0,0,0-88.08,88.07v50.41a8.54,8.54,0,0,0,17.07,0V830.06a71,71,0,0,1,71-71,53.2,53.2,0,0,0,11.15-1.18l11.9,54a8.55,8.55,0,0,0,14.78,3.76l16.81-19.36L977,879.41A8.54,8.54,0,0,0,994,881.53l12-96c.53.58,5.3,5.93,5.89,6.45a8.54,8.54,0,0,0,12-.75l5.12-5.88,12,96.22a8.54,8.54,0,1,0,16.94-2.12l-10.39-83.1,16.81,19.36a8.54,8.54,0,0,0,14.78-3.76l11.9-54a53.55,53.55,0,0,0,11.15,1.19,71,71,0,0,1,71,71v50.41a8.54,8.54,0,0,0,17.07,0V830.06A88,88,0,0,0,1102.22,742ZM968.85,791.66,960,751.52a53.16,53.16,0,0,0,9.12-7l20.69,23Z" transform="translate(-161.2 -12.08)"/><path d="M862.48,405.83,841.71,426.6a87.7,87.7,0,0,1,8.85,38.54v50.4a8.53,8.53,0,1,1-17.06,0v-50.4a71,71,0,0,0-65.17-70.76L732.9,517.9a8.54,8.54,0,0,1-16.41-4.71L751,392.87a52.33,52.33,0,0,1-33.6-24.05A8.54,8.54,0,1,1,732,359.94,35.37,35.37,0,0,0,760.63,377a8.41,8.41,0,0,1,3.27.1,87.57,87.57,0,0,1,68.58,34.59l17.94-17.93A19.43,19.43,0,0,0,851.93,368c-13.54-17.13-10.1-37.86,2.88-50.09a19.53,19.53,0,0,0,1.87-26.22L844.4,276.23a36.54,36.54,0,0,1-6.44-33l7.94-26.91a19.38,19.38,0,0,0-11.27-23.48l-10.48-4.29a36.36,36.36,0,0,1-22.65-33.76V127.28a98.25,98.25,0,0,0-98.14-98.13h-51.2A98.24,98.24,0,0,0,554,127.28v27.47a36.35,36.35,0,0,1-22.66,33.76l-10.48,4.29a19.38,19.38,0,0,0-11.26,23.48l7.94,26.91a36.54,36.54,0,0,1-6.44,33l-12.29,15.45a19.54,19.54,0,0,0,1.88,26.22c13,12.25,16.4,33,2.88,50.09a19.43,19.43,0,0,0,1.51,25.77L523,411.69a87.66,87.66,0,0,1,70-34.63A35.58,35.58,0,0,0,628.7,341.5v-2.24a114.15,114.15,0,0,1-64-87.34,8.53,8.53,0,1,1,16.91-2.33c6.57,47.71,47.91,83.69,96.15,83.69a97.18,97.18,0,0,0,97.07-97.07v-52.6A92.88,92.88,0,0,1,726.11,143,225.4,225.4,0,0,1,564,221.14a8.53,8.53,0,1,1-.68-17,208.28,208.28,0,0,0,157.82-82,8.54,8.54,0,0,1,14.72,2,76,76,0,0,0,49.86,45.07,8.54,8.54,0,0,1,6.17,7.56c.06.7,0,60,0,60.35-.58,75.2-73.19,130.06-146.31,108.58A52.29,52.29,0,0,1,626,382.56l51.74,40.06,30.43-23.56a8.53,8.53,0,1,1,10.45,13.49L686.3,437.6v60.88a8.54,8.54,0,0,1-17.07,0V437.6l-59.59-46.14a52.31,52.31,0,0,1-16.6,2.67,71,71,0,0,0-71,71v50.4a8.54,8.54,0,1,1-17.07,0v-50.4a87.7,87.7,0,0,1,8.85-38.54L493,405.83c-12.15-12.16-15.36-32.56-2.11-49.34A19.33,19.33,0,0,0,489,330.32a36.71,36.71,0,0,1-3.53-49.27l12.29-15.44A19.44,19.44,0,0,0,501.2,248l-7.94-26.91A36.39,36.39,0,0,1,514.42,177l10.48-4.29a19.36,19.36,0,0,0,12.06-18V127.28a115.34,115.34,0,0,1,115.2-115.2h51.2a115.33,115.33,0,0,1,115.2,115.2v27.47a19.37,19.37,0,0,0,12.06,18L841.11,177a36.39,36.39,0,0,1,21.16,44.1L854.33,248a19.44,19.44,0,0,0,3.43,17.59L870,281.05a36.72,36.72,0,0,1-3.52,49.27,19.32,19.32,0,0,0-1.92,26.17c13,16.5,10.27,36.95-2.12,49.34Zm-249,16.73A8.53,8.53,0,0,0,597,427.2l25.6,90.66A8.53,8.53,0,1,0,639,513.23Z" transform="translate(-161.2 -12.08)"/></svg>