<svg id="Layer_1" data-name="Layer 1" xmlns="http://www.w3.org/2000/svg" viewBox="0 0 763.56 512"><title>client-x2</title><path d="M301.08,421.27c-61.84,17.2-123.18,3.66-170.79-33.34a52.55,52.55,0,0,0,28.06-42.42c63.17,18.6,129-20.25,143.51-84.22a8.54,8.54,0,0,0-16.65-3.77A97.08,97.08,0,0,1,93.47,236V183.41a92.91,92.91,0,0,0,48.83-40.79c52.1,58.95,127.77,89,208.91,82.56A8.54,8.54,0,0,0,356.9,211l-3.22-3.61A83.67,83.67,0,0,1,332.4,151.6V126.54A114.8,114.8,0,0,0,217.73,11.87H164.4A114.8,114.8,0,0,0,49.73,126.54v91.2a35.27,35.27,0,0,0,27.81,34.42A114.44,114.44,0,0,0,141.47,339v2.25a35.57,35.57,0,0,1-35.66,35.56,88,88,0,0,0-88.08,88.08v50.41a8.54,8.54,0,0,0,17.07,0V464.93a71,71,0,0,1,71-71c1.56,0,3.12-.08,4.66-.21,51.86,45.23,122.85,64.13,195.19,44a8.54,8.54,0,0,0-4.58-16.45ZM76.4,177.2v56.53a18.13,18.13,0,0,1-9.6-16v-91.2a97.71,97.71,0,0,1,97.6-97.6h53.33a97.71,97.71,0,0,1,97.6,97.6V151.6a100.7,100.7,0,0,0,17.89,57.34c-74.89,1-141.52-31-186.14-87.18a8.54,8.54,0,0,0-14.61,2.16A76,76,0,0,1,82.6,169a8.52,8.52,0,0,0-6.2,8.2ZM363.33,464.93v50.41a8.53,8.53,0,1,1-17.06,0V464.93a71,71,0,0,0-71-71,52.38,52.38,0,0,1-45.08-25.31,8.54,8.54,0,0,1,14.58-8.88,35.45,35.45,0,0,0,30.5,17.12,88,88,0,0,1,88.07,88.08Z" transform="translate(-17.73 -11.87)"/><path d="M693.22,376.85a35.45,35.45,0,0,1-30.5-17.12,8.54,8.54,0,0,0-14.58,8.88A52.73,52.73,0,0,0,666,386.4l-8.84,40.13L635.83,402c3.95-4.55,2.83-9.74-.4-12.55a8.54,8.54,0,0,0-12,.84l-15,17.26-37.8-42a52.06,52.06,0,0,0,5.73-20C649.19,367,722,312.27,722.63,236.9V166.78a59.8,59.8,0,0,0-59.73-59.73H554.1a59.81,59.81,0,0,0-59.74,59.74v55.32a17.63,17.63,0,0,1-9.6-15.62V153.2a124.27,124.27,0,0,1,248.54,0v53.29a8.53,8.53,0,1,0,17.06,0V153.2C750.36,75.27,687,11.87,609,11.87S467.7,75.27,467.7,153.2v53.29a34.81,34.81,0,0,0,26.75,33.73,114.29,114.29,0,0,0,65,98.82v2.25A35.28,35.28,0,0,1,549,366.44c-11.94,11.91-27,10.41-25.22,10.41a88,88,0,0,0-88.07,88.08v50.41a8.53,8.53,0,1,0,17.06,0V464.93A70.82,70.82,0,0,1,484.11,406V515.34a8.54,8.54,0,0,0,17.07,0V397.6c16.54-5.54,21.85-2.32,33.74-4.86l11.91,54a8.54,8.54,0,0,0,14.78,3.76l30.7-35.35c10.4,11.55,10.06,11.3,11.13,12.09a8.5,8.5,0,0,0,6.12,1.59c4.15-.52,4.87-2.28,15-13.88l30.87,35.55a8.54,8.54,0,0,0,14.78-3.76l11.9-54a53.48,53.48,0,0,0,11.15,1.19,71,71,0,0,1,71,71v50.41a8.54,8.54,0,0,0,17.07,0V464.93a88,88,0,0,0-88.08-88.08ZM511.43,236V166.79a42.72,42.72,0,0,1,42.67-42.67H662.9a42.71,42.71,0,0,1,42.66,42.66V236a97.07,97.07,0,1,1-194.13,0Zm48.42,190.53L551,386.38a52.55,52.55,0,0,0,9.12-7l20.69,23Zm173-1.3v90.11a8.54,8.54,0,0,1-17.07,0V425.23a8.54,8.54,0,0,1,17.07,0ZM632.58,293.34c23.12-2.19,33.36-23.68,33.79-24.59a8.55,8.55,0,0,0-8.64-12.09c-16.38,1.73-16.42-10.49-30-14.09-6-1.57-12.4-.81-19.19,2.25-6.8-3.06-13.24-3.82-19.19-2.25-13.66,3.61-13.64,15.82-30,14.09a8.55,8.55,0,0,0-8.64,12.09c.43.91,10.67,22.4,33.8,24.59a40.78,40.78,0,0,0,24.08-5.41,40.62,40.62,0,0,0,24.08,5.41Zm-57.94-21.6c17-6.06,14.44-18.71,29.58-9.95a8.54,8.54,0,0,0,8.55,0c15.13-8.75,12.54,3.86,29.59,9.95-9.16,7-20.42,5.72-28.56-.74a8.51,8.51,0,0,0-10.6,0c-8.18,6.48-19.42,7.72-28.56.74Z" transform="translate(-17.73 -11.87)"/></svg>