<svg id="Layer_1" data-name="Layer 1" xmlns="http://www.w3.org/2000/svg" viewBox="0 0 1016.56 873.55"><title>client-x3</title><path d="M453.73,790.56c-61.84,17.2-123.18,3.66-170.8-33.34A52.56,52.56,0,0,0,311,714.8c63.17,18.6,129-20.25,143.5-84.22a8.53,8.53,0,1,0-16.64-3.77,97.08,97.08,0,0,1-191.74-21.52V552.7A92.91,92.91,0,0,0,295,511.91c52.1,58.95,127.76,89,208.91,82.56a8.54,8.54,0,0,0,5.69-14.19l-3.23-3.61a83.64,83.64,0,0,1-21.27-55.78V495.83A114.8,114.8,0,0,0,370.38,381.16H317.05A114.8,114.8,0,0,0,202.38,495.83V587a35.27,35.27,0,0,0,27.81,34.42,114.44,114.44,0,0,0,63.93,86.88v2.25a35.58,35.58,0,0,1-35.66,35.56,88,88,0,0,0-88.08,88.08v50.41a8.54,8.54,0,0,0,17.07,0V834.22a71,71,0,0,1,71-71c1.56,0,3.11-.08,4.66-.21C315,808.23,386,827.13,458.3,807a8.54,8.54,0,0,0-4.57-16.45ZM229.05,546.49V603a18.13,18.13,0,0,1-9.6-16v-91.2a97.71,97.71,0,0,1,97.6-97.6h53.33a97.71,97.71,0,0,1,97.6,97.6v25.06a100.7,100.7,0,0,0,17.89,57.34c-74.9,1-141.52-31-186.14-87.18a8.54,8.54,0,0,0-14.61,2.16,76,76,0,0,1-49.87,45.08,8.52,8.52,0,0,0-6.2,8.2ZM516,834.22v50.41a8.53,8.53,0,0,1-17.06,0V834.22a71,71,0,0,0-71-71,52.38,52.38,0,0,1-45.07-25.31A8.53,8.53,0,1,1,397.4,729a35.46,35.46,0,0,0,30.5,17.12A88,88,0,0,1,516,834.22Z" transform="translate(-170.38 -19.62)"/><path d="M1098.87,746.14a35.45,35.45,0,0,1-30.5-17.12,8.54,8.54,0,0,0-14.58,8.88,52.64,52.64,0,0,0,17.85,17.79l-8.84,40.13-21.33-24.55c4-4.55,2.84-9.74-.39-12.55a8.54,8.54,0,0,0-12,.84l-15,17.26-37.8-42a51.87,51.87,0,0,0,5.72-20c72.88,21.45,145.73-33.24,146.32-108.61V536.07a59.8,59.8,0,0,0-59.73-59.73H959.75A59.81,59.81,0,0,0,900,536.08V591.4a17.62,17.62,0,0,1-9.6-15.61v-53.3a124.27,124.27,0,0,1,248.54,0v53.3a8.53,8.53,0,1,0,17.06,0v-53.3c0-77.93-63.4-141.33-141.33-141.33s-141.33,63.4-141.33,141.33v53.3a34.81,34.81,0,0,0,26.74,33.72,114.32,114.32,0,0,0,65,98.82v2.25a35.28,35.28,0,0,1-10.44,25.15c-11.94,11.91-27,10.41-25.22,10.41a88,88,0,0,0-88.07,88.08v50.41a8.53,8.53,0,0,0,17.06,0V834.22a70.8,70.8,0,0,1,31.35-58.91V884.63a8.53,8.53,0,1,0,17.06,0V766.89c16.54-5.54,21.85-2.32,33.75-4.86l11.91,54a8.53,8.53,0,0,0,14.77,3.76L998,784.47c10.4,11.55,10.06,11.3,11.12,12.09a8.54,8.54,0,0,0,6.13,1.59c4.14-.52,4.87-2.28,15-13.88L1061,819.82a8.53,8.53,0,0,0,14.77-3.76l11.91-54a53.41,53.41,0,0,0,11.15,1.19,71,71,0,0,1,71,71v50.41a8.54,8.54,0,0,0,17.07,0V834.22a88,88,0,0,0-88.08-88.08ZM917.08,605.29V536.08a42.72,42.72,0,0,1,42.67-42.67h108.8a42.71,42.71,0,0,1,42.66,42.66V605.3a97.07,97.07,0,0,1-194.13,0Zm48.41,190.53-8.84-40.15a53.37,53.37,0,0,0,9.12-7l20.69,23Zm173-1.3v90.11a8.53,8.53,0,1,1-17.06,0V794.52a8.53,8.53,0,0,1,17.06,0ZM1038.22,662.63c23.13-2.19,33.37-23.68,33.8-24.59a8.55,8.55,0,0,0-8.64-12.09c-16.38,1.73-16.43-10.49-30.05-14.08-5.95-1.58-12.39-.82-19.19,2.24-6.79-3.06-13.23-3.82-19.19-2.24-13.65,3.6-13.63,15.82-30,14.08A8.55,8.55,0,0,0,956.27,638c.43.91,10.67,22.4,33.8,24.59a40.73,40.73,0,0,0,24.07-5.41,40.64,40.64,0,0,0,24.08,5.41ZM980.28,641c17-6.06,14.44-18.71,29.59-9.95a8.54,8.54,0,0,0,8.55,0c15.12-8.75,12.54,3.86,29.59,9.95-9.16,7-20.42,5.72-28.56-.74a8.52,8.52,0,0,0-10.61,0c-8.17,6.48-19.42,7.72-28.56.74Z" transform="translate(-170.38 -19.62)"/><path d="M645.35,267.09a34.19,34.19,0,0,0,33-25.59H687a34.14,34.14,0,1,0,0-17.07H678.4a34.13,34.13,0,1,0-33,42.66ZM720,215.9A17.07,17.07,0,1,1,703,233,17.08,17.08,0,0,1,720,215.9Zm-74.66,0A17.07,17.07,0,1,1,628.28,233,17.08,17.08,0,0,1,645.35,215.9Zm227.57,63.18a17.14,17.14,0,0,0-6.09,18.74C875,325,863.62,355.12,839.05,371a8.53,8.53,0,0,1-9.25-14.34c18.21-11.76,26.72-33.93,20.69-53.9a34.5,34.5,0,0,1,12.11-37.26C887,247,887,208.26,862.6,189.77a34.5,34.5,0,0,1-12.11-37.27c8.82-29.22-13.88-60.61-44.51-61.26a34.46,34.46,0,0,1-31.69-23c-10-28.83-46.86-40.88-72-23.4a34.48,34.48,0,0,1-39.18,0c-25.08-17.42-61.93-5.53-72,23.4a34.46,34.46,0,0,1-31.69,23c-30.54.65-53.36,31.93-44.51,61.26a34.5,34.5,0,0,1-12.11,37.27c-24.37,18.5-24.35,57.23,0,75.72a34.49,34.49,0,0,1,12.11,37.26c-8.84,29.3,13.94,60.62,44.51,61.26A34.49,34.49,0,0,1,590.25,385c4.52-.39,7.71-.35,7.71-.35A35.58,35.58,0,0,0,633.62,349v-2.25a114.26,114.26,0,0,1-65.07-103,8.54,8.54,0,0,1,17.07,0,97.06,97.06,0,0,0,194.12,0V200.15a68.34,68.34,0,0,0-68.26-68.27H681.81a142.46,142.46,0,0,1-21.21,37.73c-35.28,45-86.47,54.54-106.85,56.55a8.53,8.53,0,1,1-1.68-17c18.2-1.8,63.88-10.28,95.1-50.1a128.86,128.86,0,0,0,24.66-54,8.54,8.54,0,0,1,16.73,3.41c-.44,2.14-.93,4.26-1.45,6.37h24.37a85.43,85.43,0,0,1,85.33,85.33v44.26c0,61-50.2,113.48-114.13,113.48a113.64,113.64,0,0,1-32.18-4.63,52.22,52.22,0,0,1-19.56,36.85l51.74,40.05,30.43-23.56a8.54,8.54,0,0,1,10.45,13.5l-35.65,27.6a8.54,8.54,0,0,1-10.45,0L614.57,399a52.5,52.5,0,0,1-16.6,2.66,71,71,0,0,0-71,71v50.4a8.54,8.54,0,1,1-17.07,0v-50.4a88.06,88.06,0,0,1,62.8-84.4,17.09,17.09,0,0,0-13.67-7.2c-41.88-.89-72.58-43.16-60.49-83.25a17.1,17.1,0,0,0-6.09-18.74c-33.36-25.34-33.35-77.58,0-102.91a17.11,17.11,0,0,0,6.09-18.74c-12.1-40.11,18.62-82.37,60.49-83.26A17.12,17.12,0,0,0,575,62.6C588.75,23,638.43,6.91,672.83,30.8a17.12,17.12,0,0,0,19.71,0c34.4-23.9,84.08-7.75,97.86,31.8a17.13,17.13,0,0,0,16,11.58c41.88.89,72.58,43.16,60.48,83.26a17.14,17.14,0,0,0,6.09,18.74c33.37,25.33,33.35,77.57,0,102.9Zm-17.45,193.6v50.4a8.53,8.53,0,1,1-17.06,0v-50.4a71,71,0,0,0-71-71,52.38,52.38,0,0,1-45.07-25.31,8.53,8.53,0,1,1,14.57-8.87,35.45,35.45,0,0,0,30.5,17.12,88,88,0,0,1,88.07,88.07Z" transform="translate(-170.38 -19.62)"/></svg>