<svg id="Layer_1" data-name="Layer 1" xmlns="http://www.w3.org/2000/svg" viewBox="0 0 345.6 512"><title>client</title><path d="M507.55,419.9c-61.84,17.2-123.18,3.66-170.8-33.34a52.56,52.56,0,0,0,28.07-42.42c63.17,18.59,129-20.26,143.5-84.22a8.53,8.53,0,1,0-16.64-3.77,97.08,97.08,0,0,1-191.75-21.52V182a92.93,92.93,0,0,0,48.84-40.79c52.09,58.95,127.76,89,208.91,82.56a8.54,8.54,0,0,0,5.68-14.19L560.14,206a83.66,83.66,0,0,1-21.27-55.78V125.17A114.8,114.8,0,0,0,424.2,10.5H370.87A114.8,114.8,0,0,0,256.2,125.17v91.2A35.26,35.26,0,0,0,284,250.79a114.45,114.45,0,0,0,63.92,86.88v2.25a35.57,35.57,0,0,1-35.65,35.56,88,88,0,0,0-88.08,88.08V514a8.54,8.54,0,0,0,17.07,0V463.56a71,71,0,0,1,71-71c1.56,0,3.11-.08,4.66-.21,51.86,45.23,122.85,64.12,195.18,44a8.53,8.53,0,1,0-4.57-16.44ZM282.87,175.83v56.53a18.13,18.13,0,0,1-9.6-16v-91.2a97.71,97.71,0,0,1,97.6-97.6H424.2a97.71,97.71,0,0,1,97.6,97.6v25.06a100.63,100.63,0,0,0,17.89,57.34c-74.9,1-141.53-31-186.14-87.18a8.54,8.54,0,0,0-14.62,2.16,76,76,0,0,1-49.86,45.08,8.52,8.52,0,0,0-6.2,8.2ZM569.8,463.56V514a8.54,8.54,0,0,1-17.07,0V463.56a71,71,0,0,0-71-71,52.38,52.38,0,0,1-45.07-25.31,8.53,8.53,0,1,1,14.57-8.88,35.45,35.45,0,0,0,30.5,17.12,88,88,0,0,1,88.08,88.08Z" transform="translate(-224.2 -10.5)"/></svg>