<svg id="Capa_1" enable-background="new 0 0 512 512" height="512" viewBox="0 0 512 512" width="512" xmlns="http://www.w3.org/2000/svg"><g><path d="m502.812 290.085c-2.105-49.91-43.348-90.115-93.762-90.434l-28.57-.143c-.282-.897-.733-1.757-1.369-2.526l-27.709-33.563c-11.978-14.508-29.638-22.83-48.452-22.83-4.127 0-7.874 2.104-10.023 5.629-2.147 3.525-2.301 7.819-.408 11.49l21.397 41.466-82.877-.416-2.238-13.079c-3.659-21.39-22.066-36.915-43.767-36.915-8.8 0-15.959 7.159-15.959 15.959v22.864c-2.776-1.055-5.13-1.999-6.85-2.723-.183-.077-.37-.147-.559-.209-25.395-8.382-52.625-9.779-78.744-4.042-4.046.889-6.605 4.889-5.716 8.934.889 4.046 4.892 6.605 8.934 5.716 23.4-5.14 47.79-3.913 70.553 3.545 3.63 1.511 35.92 14.731 54.857 14.85l197.413.99c3.316.021 6.578.271 9.788.69v14.607c0 19.335 15.73 35.065 35.065 35.065h28.526c2.606 6.577 4.374 13.569 5.13 20.855h-65.176c-9.948-15.767-27.572-26.279-47.627-26.279-20.054 0-37.677 10.511-47.626 26.279h-47.094c-4.143 0-7.5 3.358-7.5 7.5s3.357 7.5 7.5 7.5h40.484c-1.274 4.667-1.966 9.57-1.966 14.633 0 .668.027 1.33.051 1.992h-139.916c.023-.663.051-1.324.051-1.992 0-5.063-.692-9.965-1.966-14.633h73.265c4.142 0 7.5-3.358 7.5-7.5s-3.358-7.5-7.5-7.5h-79.875c-9.949-15.767-27.572-26.279-47.626-26.279s-37.678 10.514-47.626 26.282h-52.65c-.522 0-1.038.025-1.551.06-.828-2.712-1.255-5.534-1.255-8.437v-5.977h20.79c12.216 0 22.155-9.939 22.155-22.155v-10.968c0-12.216-9.938-22.155-22.155-22.155h-15.52c4.08-5.64 10.294-9.722 17.525-11.311l13.892-3.051c4.046-.889 6.605-4.889 5.716-8.935s-4.888-6.603-8.934-5.716l-13.892 3.051c-14.223 3.124-25.915 12.762-31.275 25.78-2.191 5.321-3.302 10.941-3.302 16.706v44.732c0 5.027.829 9.904 2.47 14.557-4.21 4.038-6.839 9.713-6.839 15.994v2.276c0 12.227 9.948 22.174 22.175 22.174h46.475c.086 0 .17-.01.256-.013 7.243 22.552 28.504 38.931 53.544 38.931 25.036 0 46.293-16.373 53.54-38.919h145.142c7.247 22.545 28.504 38.919 53.539 38.919 25.036 0 46.293-16.373 53.54-38.919h61.614c12.227 0 22.175-9.947 22.175-22.174v-2.276c0-7.379-3.627-13.924-9.188-17.957zm-194.343-134.18c12.217 1.406 23.43 7.451 31.366 17.063l21.833 26.445-30.829-.155zm-124.393 36.917v-28.099c0-.529.43-.959.959-.959 14.37 0 26.559 10.28 28.981 24.444l1.792 10.473c.001.001-13.036 1.863-31.732-5.859zm-136.763 45.569v10.968c0 3.945-3.209 7.155-7.155 7.155h-20.79v-23.755c0-.498.014-.997.04-1.494.001-.01.002-.019.002-.029h20.748c3.946 0 7.155 3.21 7.155 7.155zm-25.138 79.102c-3.956 0-7.175-3.218-7.175-7.174v-2.276c0-3.956 3.219-7.175 7.175-7.175h46.04c-1.274 4.667-1.966 9.57-1.966 14.633 0 .668.027 1.33.051 1.992zm100.276 38.918c-22.719 0-41.202-18.353-41.202-40.911s18.483-40.911 41.202-40.911 41.202 18.353 41.202 40.911c-.001 22.559-18.484 40.911-41.202 40.911zm331.367-106.398c-11.064 0-20.065-9.001-20.065-20.065v-11.131c16.753 5.663 31.042 16.763 40.723 31.196zm-79.147 106.398c-22.719 0-41.201-18.353-41.201-40.911s18.482-40.911 41.201-40.911 41.202 18.353 41.202 40.911c.001 22.559-18.483 40.911-41.202 40.911zm122.329-46.093c0 3.956-3.219 7.174-7.175 7.174h-59.003c.023-.663.051-1.324.051-1.992 0-5.063-.692-9.965-1.966-14.633h60.918c3.956 0 7.175 3.219 7.175 7.175z"/><path d="m374.671 291.016c-13.558 0-24.587 10.984-24.587 24.485s11.029 24.485 24.587 24.485 24.587-10.984 24.587-24.485-11.029-24.485-24.587-24.485zm0 33.969c-5.286 0-9.587-4.255-9.587-9.485s4.301-9.485 9.587-9.485 9.587 4.255 9.587 9.485-4.301 9.485-9.587 9.485z"/><path d="m122.451 291.016c-13.557 0-24.587 10.984-24.587 24.485s11.03 24.485 24.587 24.485 24.587-10.984 24.587-24.485-11.03-24.485-24.587-24.485zm0 33.969c-5.286 0-9.587-4.255-9.587-9.485s4.301-9.485 9.587-9.485 9.587 4.255 9.587 9.485-4.301 9.485-9.587 9.485z"/><path d="m212.496 247.91c4.142 0 7.5-3.358 7.5-7.5s-3.358-7.5-7.5-7.5h-12.998c-4.142 0-7.5 3.358-7.5 7.5s3.358 7.5 7.5 7.5z"/></g></svg>