<?xml version="1.0" encoding="utf-8"?>
<!-- Generator: Adobe Illustrator 16.0.0, SVG Export Plug-In . SVG Version: 6.00 Build 0)  -->
<!DOCTYPE svg PUBLIC "-//W3C//DTD SVG 1.1//EN" "http://www.w3.org/Graphics/SVG/1.1/DTD/svg11.dtd">
<svg version="1.1" id="Layer_1" xmlns="http://www.w3.org/2000/svg" xmlns:xlink="http://www.w3.org/1999/xlink" x="0px" y="0px"
	 width="595.28px" height="250.238px" viewBox="0 0 595.28 250.238" enable-background="new 0 0 595.28 250.238"
	 xml:space="preserve">
<g>
	<path fill="current" d="M107.566,72.989c0.615,0,1.076,0.538,1.076,1.153v50.813c0,0.538-0.461,1.076-1.076,1.076H93.345
		c-0.615,0-1.153-0.538-1.153-1.076v-22.601l-7.764,22.524c-0.231,0.615-1.23,1.153-1.922,1.153H74.05
		c-0.692,0-1.691-0.538-1.922-1.153l-7.765-22.524v22.601c0,0.538-0.538,1.076-1.153,1.076H48.989c-0.615,0-1.076-0.538-1.076-1.076
		V74.143c0-0.615,0.461-1.153,1.076-1.153h16.066c1,0,2.153,0.692,2.614,1.538l10.609,29.366l10.608-29.366
		c0.461-0.846,1.614-1.538,2.614-1.538H107.566z"/>
	<path fill="current" d="M165.071,125.033c0.23,0.461-0.077,0.999-0.692,0.999h-15.221c-0.692,0-1.307-0.385-1.614-0.999
		l-2.306-8.072h-14.452l-2.306,8.072c-0.308,0.614-0.922,0.999-1.614,0.999h-15.221c-0.615,0-0.922-0.538-0.692-0.999l17.374-51.044
		c0.23-0.461,1.076-1,1.845-1h15.683c0.769,0,1.614,0.538,1.845,1L165.071,125.033z M138.011,91.362l-4.151,14.606h8.303
		L138.011,91.362z"/>
	<path fill="current" d="M211.274,124.802c0.384,0.692-0.154,1.23-0.846,1.23h-16.451c-0.769,0-1.46-0.538-1.768-1.23l-7.995-16.758
		h-0.923v16.912c0,0.538-0.538,1.076-1.23,1.076h-13.53c-0.615,0-1.153-0.538-1.153-1.076V74.143c0-0.615,0.538-1.153,1.153-1.153
		h20.295c11.838,0,19.68,6.919,19.68,17.374c0,6.073-3.69,12.223-9.456,14.683L211.274,124.802z M187.827,94.975
		c2.614,0,4.382-1.614,4.382-4.074s-1.768-4.074-4.382-4.074h-4.536v8.148H187.827z"/>
	<path fill="current" d="M258.86,124.802c0.384,0.692-0.154,1.23-0.846,1.23h-16.451c-0.769,0-1.46-0.538-1.768-1.23l-7.995-16.758
		h-0.923v16.912c0,0.538-0.538,1.076-1.23,1.076h-13.53c-0.615,0-1.153-0.538-1.153-1.076V74.143c0-0.615,0.538-1.153,1.153-1.153
		h20.295c11.838,0,19.68,6.919,19.68,17.374c0,6.073-3.69,12.223-9.456,14.683L258.86,124.802z M235.414,94.975
		c2.614,0,4.382-1.614,4.382-4.074s-1.768-4.074-4.382-4.074h-4.536v8.148H235.414z"/>
	<path fill="current" d="M277.234,72.989c0.692,0,1.153,0.538,1.153,1.153v50.813c0,0.538-0.461,1.076-1.153,1.076h-13.606
		c-0.538,0-1.076-0.538-1.076-1.076V74.143c0-0.615,0.538-1.153,1.076-1.153H277.234z"/>
	<path fill="current" d="M334.813,125.033c0.23,0.461-0.077,0.999-0.691,0.999H318.9c-0.691,0-1.307-0.385-1.614-0.999l-2.306-8.072
		h-14.453l-2.306,8.072c-0.308,0.614-0.923,0.999-1.614,0.999h-15.221c-0.615,0-0.922-0.538-0.692-0.999l17.374-51.044
		c0.23-0.461,1.077-1,1.845-1h15.682c0.769,0,1.614,0.538,1.846,1L334.813,125.033z M307.754,91.362l-4.151,14.606h8.303
		L307.754,91.362z"/>
	<path fill="current" d="M379.325,93.515c0.615,0,1.153,0.538,1.153,1.076v24.446c0,0.692-0.385,1.384-0.923,1.845
		c-4.612,3.92-11.685,6.227-19.064,6.227c-16.604,0-27.675-11.07-27.675-27.674c0-16.605,11.07-27.675,27.675-27.675
		c5.688,0,11.685,1.691,16.144,4.458c0.615,0.308,0.846,0.923,0.692,1.384l-3.844,11.301c-0.231,0.538-0.77,0.769-1.461,0.615
		c-3.152-1.691-7.227-2.69-11.07-2.69c-7.072,0-11.838,5.074-11.838,12.607c0,7.687,4.766,12.761,11.838,12.761
		c2.845,0,4.767-0.538,5.612-1.46v-4.458h-7.072c-0.692,0-1.153-0.308-1.23-0.846l-0.999-10.609
		c-0.077-0.769,0.385-1.307,1.229-1.307H379.325z M367.025,109.581v0.308V109.581z"/>
	<path fill="current" d="M423.145,112.195c0.615,0,1.153,0.461,1.153,1v11.762c0,0.538-0.538,1.076-1.153,1.076h-35.746
		c-0.538,0-1.076-0.615-1.23-1.153V74.065c0-0.692,0.385-1.076,1.076-1.076h34.979c0.691,0,1.229,0.538,1.229,1.076v11.608
		c0,0.692-0.538,1.153-1.229,1.153h-20.064v6.073h16.297c0.692,0,1.076,0.538,1,1l-1.076,10.762c-0.077,0.461-0.615,1-1.308,1
		h-14.913v6.534H423.145z"/>
</g>
<g>
	<defs>
		<rect id="SVGID_1_" x="39.685" y="39.685" width="516.166" height="157.005"/>
	</defs>
	<clipPath id="SVGID_2_">
		<use xlink:href="#SVGID_1_"  overflow="visible"/>
	</clipPath>
	<g clip-path="url(#SVGID_2_)">
		<path fill="current" d="M170.684,131.646c10.07,0,16.758,5.996,16.758,14.99c0,5.535-2.69,9.609-6.842,10.84
			c4.843,1.229,7.995,5.842,7.995,12.223c0,8.994-6.688,14.99-16.681,14.99h-24.369c-0.615,0-1.076-0.538-1.076-1.076v-50.813
			c0-0.538,0.461-1.153,1.076-1.153H170.684z M167.147,152.479c2.307,0,3.844-1.384,3.844-3.536s-1.537-3.536-3.844-3.536h-4.843
			v7.072H167.147z M168.531,170.928c2.229,0,3.767-1.46,3.767-3.689s-1.538-3.69-3.767-3.69h-6.227v7.38H168.531z"/>
		<path fill="current" d="M234.413,131.646c0.769,0,1.307,0.615,1.307,1.307v32.057c0,13.606-7.303,20.756-21.217,20.756
			c-13.76,0-21.063-7.149-21.217-20.756v-32.057c0-0.691,0.615-1.307,1.307-1.307h13.222c0.769,0,1.307,0.615,1.307,1.307v33.44
			c0,3.536,1.999,5.611,5.381,5.611s5.381-2.075,5.381-5.534v-33.518c0-0.691,0.615-1.307,1.307-1.307H234.413z"/>
		<path fill="current" d="M285.459,183.458c0.384,0.692-0.154,1.23-0.846,1.23h-16.451c-0.769,0-1.46-0.538-1.768-1.23L258.4,166.7
			h-0.923v16.912c0,0.538-0.538,1.076-1.23,1.076h-13.53c-0.615,0-1.153-0.538-1.153-1.076v-50.813c0-0.615,0.538-1.153,1.153-1.153
			h20.295c11.838,0,19.68,6.919,19.68,17.373c0,6.073-3.69,12.224-9.456,14.684L285.459,183.458z M262.013,153.632
			c2.614,0,4.382-1.614,4.382-4.074s-1.768-4.075-4.382-4.075h-4.536v8.149H262.013z"/>
		<path fill="current" d="M325.974,170.852c0.614,0,1.152,0.461,1.152,0.999v11.762c0,0.538-0.538,1.076-1.152,1.076h-35.747
			c-0.538,0-1.076-0.615-1.23-1.153v-50.813c0-0.691,0.384-1.076,1.076-1.076h34.978c0.691,0,1.23,0.538,1.23,1.076v11.608
			c0,0.691-0.539,1.152-1.23,1.152h-20.064v6.073h16.298c0.691,0,1.076,0.538,0.999,1l-1.076,10.762c-0.077,0.461-0.615,1-1.307,1
			h-14.914v6.534H325.974z"/>
		<path fill="current" d="M382.322,183.689c0.231,0.461-0.076,0.999-0.691,0.999H366.41c-0.692,0-1.307-0.385-1.614-0.999
			l-2.307-8.072h-14.452l-2.307,8.072c-0.307,0.614-0.922,0.999-1.614,0.999h-15.221c-0.615,0-0.923-0.538-0.692-0.999
			l17.374-51.045c0.23-0.461,1.076-0.999,1.845-0.999h15.683c0.769,0,1.614,0.538,1.845,0.999L382.322,183.689z M355.264,150.019
			l-4.151,14.605h8.302L355.264,150.019z"/>
		<path fill="current" d="M422.222,131.646c0.769,0,1.307,0.615,1.307,1.307v32.057c0,13.606-7.303,20.756-21.217,20.756
			c-13.761,0-21.063-7.149-21.217-20.756v-32.057c0-0.691,0.614-1.307,1.307-1.307h13.222c0.77,0,1.308,0.615,1.308,1.307v33.44
			c0,3.536,1.998,5.611,5.381,5.611s5.381-2.075,5.381-5.534v-33.518c0-0.691,0.615-1.307,1.307-1.307H422.222z"/>
	</g>
	<g clip-path="url(#SVGID_2_)">
		<path fill="current" d="M56.516,45.067h-8.554V42.04h20.452v3.027H59.86v22.459h-3.344V45.067z"/>
		<path fill="current" d="M71.897,40.632h3.168V52.39l0.07,0.035c1.514-1.514,3.626-2.605,6.055-2.605
			c1.901,0,3.521,0.669,4.611,1.901c0.951,1.091,1.443,2.429,1.443,5.104v10.701h-3.168V57.423c0-1.936-0.247-2.851-0.845-3.52
			c-0.669-0.774-1.549-1.126-2.64-1.126c-2.077,0-4.225,1.267-5.527,2.886v11.863h-3.168V40.632z"/>
		<path fill="current" d="M94.707,59.782c0.458,3.415,2.992,5.28,6.407,5.28c2.394,0,4.4-0.95,5.984-2.147v3.379
			c-1.549,0.985-3.943,1.619-6.196,1.619c-5.351,0-9.364-3.591-9.364-9.047c0-5.457,3.978-9.047,8.625-9.047
			c4.224,0,7.885,2.957,7.885,8.378c0,0.528-0.035,1.162-0.105,1.584H94.707z M94.777,57.283h10.208
			c-0.282-3.45-2.816-4.612-4.893-4.612C97.804,52.671,95.34,54.079,94.777,57.283z"/>
	</g>
	<path clip-path="url(#SVGID_2_)" fill="current" d="M555.353,101.978c-0.934-5.521-2.949-10.559-6.297-15.041
		c-6.906-9.252-16.258-13.908-27.695-14.348c-4.348-0.168-8.609,0.625-12.732,2.131c-3.451,1.26-6.604,3.025-9.529,5.219
		c-0.25,0.189-0.438,0.338-0.566,0.469l-18.307,18.307l12.354,12.354l13.949-13.947c0.018,0.025,0.033,0.049,0.051,0.076
		c0.07-0.123,0.119-0.211,0.158-0.287l2.979-2.977c1.707-1.365,3.621-2.416,5.789-3.059c3.906-1.154,7.805-1.068,11.621,0.465
		c5.67,2.277,9.352,6.441,10.707,12.316c1.438,6.229-0.07,11.885-4.652,16.503l-40.512,40.529c0,0-4.873-4.877-6.922-6.92
		l11.574-11.574l-12.352-12.354l-11.584,11.582c-1.838-1.838-3.676-3.678-5.512-5.516l11.58-11.582l-12.352-12.353l-11.564,11.562
		c-1.119-1.127-2.242-2.248-3.361-3.376c-4.586-4.617-6.09-10.273-4.656-16.502c1.357-5.875,5.039-10.039,10.709-12.316
		c3.816-1.533,7.719-1.619,11.623-0.465c1.809,0.535,3.434,1.361,4.918,2.41l12.188-12.188c0.334-0.33,0.334-0.33-0.703-1.158
		c-2.926-2.193-6.074-3.959-9.527-5.219c-4.125-1.506-8.383-2.299-12.73-2.131c-11.439,0.439-20.789,5.096-27.697,14.348
		c-3.346,4.482-5.361,9.52-6.299,15.041c-0.918,5.436-0.547,10.777,1.004,16.016c1.828,6.158,5.332,11.285,9.881,15.802
		c0.736,0.729,1.467,1.463,2.201,2.191l-11.578,11.576l12.352,12.355l11.598-11.596c1.838,1.838,3.676,3.678,5.514,5.516
		l-11.596,11.594l12.354,12.354l11.596-11.594c2.574,2.574,5.148,5.148,7.723,7.719c3.551,3.553,7.098,7.109,10.65,10.66
		c0.479,0.477,0.971,0.975,0.971,0.975s38.373-38.42,51.801-51.75c4.551-4.518,8.055-9.645,9.879-15.802
		C555.901,112.755,556.274,107.414,555.353,101.978"/>
</g>
</svg>
