<?xml version="1.0" encoding="utf-8"?>
<!-- Generator: Adobe Illustrator 16.0.0, SVG Export Plug-In . SVG Version: 6.00 Build 0)  -->
<!DOCTYPE svg PUBLIC "-//W3C//DTD SVG 1.1//EN" "http://www.w3.org/Graphics/SVG/1.1/DTD/svg11.dtd">
<svg version="1.1" id="Layer_1" xmlns="http://www.w3.org/2000/svg" xmlns:xlink="http://www.w3.org/1999/xlink" x="0px" y="0px"
	 width="240.94px" height="240.94px" viewBox="0 0 240.94 240.94" enable-background="new 0 0 240.94 240.94" xml:space="preserve">
<g>
	<path fill="current" d="M76.297,61.396c12.012,0,21.748-9.379,21.748-20.945
		c0-11.57-9.736-20.949-21.748-20.949c-12.014,0-21.748,9.379-21.748,20.949C54.549,52.018,64.283,61.396,76.297,61.396"/>
	<path  fill="current" d="M163.801,61.396c12.016,0,21.75-9.379,21.75-20.945
		c0-11.57-9.734-20.949-21.75-20.949c-12.012,0-21.75,9.379-21.75,20.949C142.051,52.018,151.789,61.396,163.801,61.396"/>
	<path  fill="current" d="M207.559,106.729c-1.305-7.711-4.125-14.742-8.797-21.004
		c-9.641-12.914-22.695-19.414-38.672-20.031c-6.062-0.234-12.016,0.875-17.773,2.98c-4.82,1.758-9.219,4.223-13.301,7.281
		c-0.355,0.266-0.613,0.473-0.793,0.656l0,0l-25.559,25.562l17.248,17.246l19.475-19.477c0.023,0.043,0.047,0.07,0.07,0.109
		c0.102-0.172,0.164-0.297,0.223-0.398l4.156-4.16c2.387-1.902,5.059-3.375,8.082-4.27c5.453-1.613,10.898-1.488,16.227,0.648
		c7.914,3.18,13.055,8.992,14.953,17.199c2,8.691-0.102,16.596-6.5,23.041l-56.561,56.586c0,0-54.973-55.008-56.537-56.586
		c-6.4-6.445-8.504-14.35-6.496-23.041c1.893-8.207,7.033-14.02,14.949-17.199c5.328-2.137,10.775-2.262,16.223-0.648
		c2.525,0.75,4.801,1.902,6.869,3.363l17.016-17.016c0.469-0.461,0.469-0.461-0.977-1.617c-4.088-3.059-8.484-5.523-13.303-7.281
		c-5.756-2.105-11.709-3.215-17.777-2.98c-15.971,0.617-29.027,7.117-38.672,20.031c-4.672,6.262-7.484,13.293-8.791,21.004
		c-1.285,7.594-0.764,15.041,1.404,22.361c2.547,8.602,7.439,15.758,13.791,22.062c1.027,1.016,65.984,65.93,70.943,70.891
		c0.668,0.664,1.357,1.359,1.357,1.359s53.576-53.641,72.326-72.25c6.352-6.305,11.242-13.461,13.789-22.062
		C208.324,121.77,208.84,114.322,207.559,106.729"/>
</g>
</svg>
