<?xml version="1.0" encoding="utf-8"?>
<!-- Generator: Adobe Illustrator 16.0.0, SVG Export Plug-In . SVG Version: 6.00 Build 0)  -->
<!DOCTYPE svg PUBLIC "-//W3C//DTD SVG 1.1//EN" "http://www.w3.org/Graphics/SVG/1.1/DTD/svg11.dtd">
<svg version="1.1" id="Layer_1" xmlns="http://www.w3.org/2000/svg" xmlns:xlink="http://www.w3.org/1999/xlink" x="0px" y="0px"
	 width="240.94px" height="240.94px" viewBox="0 0 240.94 240.94" enable-background="new 0 0 240.94 240.94" xml:space="preserve">
<g>

	<path fill="current" d="M207.559,83.416c-1.305-7.711-4.125-14.742-8.797-21.004
		c-9.641-12.914-22.695-19.414-38.672-20.031c-6.062-0.234-12.016,0.875-17.773,2.98c-4.82,1.758-9.219,4.223-13.301,7.281
		c-0.355,0.266-0.613,0.473-0.793,0.656l0,0l-25.559,25.562l17.248,17.246l19.475-19.477c0.023,0.043,0.047,0.07,0.07,0.109
		c0.102-0.172,0.164-0.297,0.223-0.398l4.156-4.16c2.387-1.902,5.059-3.375,8.082-4.27c5.453-1.613,10.898-1.488,16.227,0.648
		c7.914,3.18,13.055,8.992,14.953,17.199c2,8.691-0.102,16.594-6.5,23.039l-56.561,56.588c0,0-6.805-6.812-9.664-9.664
		l16.162-16.156l-17.25-17.25l-16.172,16.172c-2.564-2.57-5.129-5.133-7.697-7.703l16.172-16.166L84.34,97.373l-16.143,16.141
		c-1.564-1.574-3.133-3.137-4.697-4.715c-6.4-6.445-8.504-14.348-6.496-23.039c1.893-8.207,7.033-14.02,14.949-17.199
		c5.328-2.137,10.775-2.262,16.223-0.648c2.525,0.75,4.801,1.902,6.869,3.363l17.016-17.016c0.469-0.461,0.469-0.461-0.977-1.617
		c-4.088-3.059-8.484-5.523-13.303-7.281c-5.756-2.105-11.709-3.215-17.777-2.98c-15.971,0.617-29.027,7.117-38.672,20.031
		c-4.672,6.262-7.484,13.293-8.791,21.004c-1.285,7.594-0.764,15.043,1.404,22.359c2.547,8.602,7.439,15.76,13.791,22.064
		c1.027,1.016,2.049,2.047,3.072,3.062l-16.164,16.164l17.248,17.242l16.188-16.188c2.568,2.57,5.133,5.133,7.701,7.703
		l-16.189,16.188l17.248,17.25l16.189-16.195c3.592,3.602,7.188,7.188,10.783,10.789c4.955,4.953,9.908,9.914,14.867,14.875
		c0.668,0.664,1.357,1.359,1.357,1.359s53.576-53.641,72.326-72.25c6.352-6.305,11.242-13.463,13.789-22.064
		C208.324,98.459,208.84,91.01,207.559,83.416"/>
</g>
</svg>
