<?xml version="1.0" encoding="iso-8859-1"?>
<!-- Generator: Adobe Illustrator 19.0.0, SVG Export Plug-In . SVG Version: 6.00 Build 0)  -->
<svg version="1.1" id="Capa_1" xmlns="http://www.w3.org/2000/svg" xmlns:xlink="http://www.w3.org/1999/xlink" x="0px" y="0px"
	 viewBox="0 0 415.994 415.994" style="enable-background:new 0 0 415.994 415.994;" xml:space="preserve">
<g>
	<g>
		<path d="M343.355,236.294c-3-51-34.4-95.9-81.3-116.3l50.3-88.2c0-0.1,0.1-0.1,0.1-0.2c5.4-9.9,1.7-22.3-8.3-27.7
			c-4.4-2.4-9.5-3.1-14.3-1.9l-16.4,3.8c-33,7.6-67.2,8.6-100.6,2.8l-48.5-8.3c-11.1-1.9-21.7,5.6-23.6,16.7
			c-0.8,4.5,0,9.1,2.2,13.1c0,0.1,0.1,0.1,0.1,0.2l50.8,89.8c-46.8,20.3-78.1,65.3-81.1,116.2l-9.9,169.2
			c-0.3,5.5,3.9,10.2,9.3,10.5c0.2,0,0.4,0,0.6,0h270.4c5.5,0,10-4.4,10-9.9c0-0.2,0-0.4,0-0.6L343.355,236.294z M120.355,20.694
			c0-0.2,0-0.3,0.1-0.5c0.2-0.2,0.3-0.2,0.4-0.2l48.5,8.3c36,6.2,72.9,5.2,108.5-3l16.3-3.8c0.2-0.1,0.4,0,0.5,0.2
			c0.1,0.2,0.1,0.3,0.1,0.4l-52,91.3c-0.8-0.2-1.5-0.4-2.3-0.6c-2-0.5-4.1-0.9-6.2-1.4l7.3-33.5c1.2-5.4-2.2-10.7-7.6-11.9
			c-5.4-1.2-10.7,2.2-11.9,7.6l-7.7,35.3c-2.1-0.1-4.3-0.2-6.4-0.2c-1.3,0-2.7,0-4,0.1l-16.4-51.7c-1.6-5.3-7.2-8.2-12.5-6.6
			c-5.3,1.6-8.2,7.2-6.6,12.5c0,0.1,0,0.1,0.1,0.2l15.2,47.8c-3.6,0.7-7.1,1.4-10.7,2.4L120.355,20.694z M83.455,396.094l9.3-158.6
			c3.8-63.7,58.5-112.3,122.2-108.5c7,0.4,14,1.5,20.8,3.2c49.1,12.2,84.5,54.8,87.6,105.3l9.3,158.6H83.455z"/>
	</g>
</g>
<g>
	<g>
		<path d="M265.355,318.394c-1.5-5.2-7.1-8.2-12.4-6.6l-6.8,2.1c-7.1,2.2-14.7,1.5-21.3-1.8c-6.9-3.5-14.5-5.3-22.2-5.3
			c-1.3,0-2.6,0.1-4.1,0.2c2.3-5.5,3.8-11.3,4.3-17.2c0-0.3,0.1-0.8,0.1-1c0.3-4.5,0.5-8.5,0.4-13.5h25.6c5.5,0,10-4.5,10-10
			s-4.5-10-10-10h-27.4c-0.6-3-1.2-6.5-2-9.7c-1.3-5.1-2-10.3-2.2-15.5c0-2.6,0.5-5.2,1.4-7.7c1.9-4.9,5.7-8.8,10.6-10.8
			c2.7-1.1,5.6-1.6,8.5-1.6c14.7,0,18.1,8.2,19.4,14.3c1.1,5.4,6.3,8.9,11.8,7.9s8.9-6.3,7.9-11.8c0-0.1,0-0.1,0-0.2
			c-4-19.2-18.2-30.2-39-30.2c-5.6,0-11.1,1-16.2,3.1h-0.1c-9.7,4.1-17.4,11.9-21.3,21.7c0,0,0,0.1-0.1,0.1
			c-1.9,4.8-2.8,9.9-2.8,15.1c0.1,6.8,1,13.5,2.7,20.1c0.4,1.7,0.8,4,1.1,5h-20.2c-5.5,0-10,4.5-10,10s4.5,10,10,10h22.3
			c0.1,4,0,7.7-0.3,11.5c0,0.2-0.1,0.6-0.1,0.8c-0.5,6.8-2.9,13.3-6.9,18.7l-5.2,7.1c-3.3,4.5-2.3,10.7,2.2,14
			c2,1.5,4.6,2.2,7.1,1.9l19.1-2.3c1.1-0.1,2.3-0.2,3.4-0.2c4.5,0,9,1.1,13,3.1c11.2,5.8,24.2,6.9,36.3,3.2l6.7-2
			C263.955,329.294,266.955,323.694,265.355,318.394z"/>
	</g>
</g>
<g>
</g>
<g>
</g>
<g>
</g>
<g>
</g>
<g>
</g>
<g>
</g>
<g>
</g>
<g>
</g>
<g>
</g>
<g>
</g>
<g>
</g>
<g>
</g>
<g>
</g>
<g>
</g>
<g>
</g>
</svg>
