<svg id="Capa_1" data-name="Capa 1" xmlns="http://www.w3.org/2000/svg" viewBox="0 0 899.49 524.7"><title>money-bag-x3</title><path d="M284.79,328.25a135.48,135.48,0,0,0-99.87-100.81L219.51,132c0-.1.08-.11.06-.21a20.38,20.38,0,0,0-12.88-25.89,19.82,19.82,0,0,0-14.42.56L176.76,113a254.51,254.51,0,0,1-98.67,19.84l-49.2.06A20.48,20.48,0,0,0,8.47,153.33a19.87,19.87,0,0,0,4.39,12.54c0,.1.12.08.13.18l65.32,79.87A135.26,135.26,0,0,0,18.12,374.2l19,168.43a9.94,9.94,0,0,0,10.95,8.76l.59-.1,266.47-45.92a9.94,9.94,0,0,0,8.17-11.46l-.1-.59ZM28.41,153.65a.89.89,0,0,1,0-.51c.16-.23.26-.25.36-.26l49.2-.06A275.35,275.35,0,0,0,184.4,131.43l15.42-6.51a.37.37,0,0,1,.53.11.83.83,0,0,1,.17.38l-35.74,98.81-2.37-.2c-2.06-.16-4.19-.2-6.35-.33l1.51-34.25a10,10,0,0,0-19.95-.93L136,224.6c-2.09.26-4.28.54-6.35.89-1.28.23-2.66.46-3.92.78l-24.94-48.16A10,10,0,0,0,83,187.17c0,.1,0,.1.13.18l23.1,44.52c-3.43,1.3-6.76,2.59-10.14,4.18ZM55.8,529.86,38,372A115.56,115.56,0,0,1,140,244.31a112.91,112.91,0,0,1,21-.38,115.7,115.7,0,0,1,104.21,88.89l36.1,154.72Z" transform="translate(-8.47 -33.76)"/><path d="M221.86,422.4a9.9,9.9,0,0,0-13.34-4.4l-6.34,3.23a28.64,28.64,0,0,1-21.3,1.84,48.94,48.94,0,0,0-22.77-1.45c-1.29.22-2.55.54-4,.89a57.23,57.23,0,0,0,1.31-17.68c0-.3,0-.81-.07-1-.46-4.49-1-8.46-1.89-13.37l25.22-4.35a10,10,0,1,0-3.39-19.71l-27,4.65c-1.1-2.85-2.28-6.2-3.61-9.22a74,74,0,0,1-4.8-14.9,22.58,22.58,0,0,1,.07-7.82,19.08,19.08,0,0,1,8.61-12.45,22.52,22.52,0,0,1,8.1-3c14.49-2.49,19.23,5,21.55,10.8a10.11,10.11,0,0,0,13,5.78,10,10,0,0,0,5.78-13l0-.2c-7.2-18.24-23.07-26.67-43.56-23.13a42.53,42.53,0,0,0-15.44,5.8l-.1,0a39.45,39.45,0,0,0-17.31,25,.1.1,0,0,1-.08.12,40.84,40.84,0,0,0-.19,15.35,85.29,85.29,0,0,0,6.07,19.35c.69,1.61,1.47,3.81,1.94,4.74l-19.91,3.43a10,10,0,1,0,3.4,19.71l22-3.78A108.07,108.07,0,0,1,135.36,405c0,.2,0,.61,0,.8a35.82,35.82,0,0,1-3.63,19.6l-3.92,7.88a10.07,10.07,0,0,0,11.87,14.09l18.43-5.51c1.07-.28,2.23-.58,3.32-.77a29.1,29.1,0,0,1,13.34.85,48.14,48.14,0,0,0,36.31-3l6.26-3.1A10,10,0,0,0,221.86,422.4Z" transform="translate(-8.47 -33.76)"/><path d="M900.05,381.15A135.48,135.48,0,0,0,839.22,253l64.26-78.61c0-.1.12-.08.14-.18A20.38,20.38,0,0,0,900,145.47a19.82,19.82,0,0,0-13.79-4.25l-16.8,1a254.54,254.54,0,0,1-99.67-14L723.34,112a20.48,20.48,0,0,0-26.05,12.54,19.94,19.94,0,0,0,0,13.29c0,.1.08.11.07.21l35.16,97a135.26,135.26,0,0,0-99.29,101.1l-37.9,165.19a9.94,9.94,0,0,0,7.42,11.9l.59.1,266.64,45a10,10,0,0,0,11.51-8.1l.1-.59ZM716,131.47a.94.94,0,0,1,.18-.47.5.5,0,0,1,.43-.14l46.45,16.25A275.39,275.39,0,0,0,870.54,162.2l16.71-1a.38.38,0,0,1,.46.28.76.76,0,0,1,0,.41l-66.46,81.38-2.16-1c-1.89-.83-3.9-1.57-5.88-2.41L826,208a10,10,0,1,0-18.51-7.48L794,234.07c-2.06-.44-4.21-.91-6.28-1.26-1.28-.21-2.66-.45-4-.56l-7.58-53.71a10,10,0,1,0-19.81,2.64c0,.1,0,.1.06.22l7,49.66c-3.66.09-7.23.2-11,.58Zm-98.81,364,35.55-154.85A115.57,115.57,0,0,1,791.28,254a112.77,112.77,0,0,1,20,6.62A115.71,115.71,0,0,1,880.13,379L862.93,537Z" transform="translate(-8.47 -33.76)"/><path d="M809.48,449.14a9.9,9.9,0,0,0-11.13-8.57l-7.05.94a28.63,28.63,0,0,1-20.71-5.32,49,49,0,0,0-21-8.92c-1.28-.21-2.58-.33-4.07-.48a57.37,57.37,0,0,0,7.1-16.25c0-.29.23-.77.26-1,1-4.38,1.91-8.29,2.64-13.24l25.25,4.26a10,10,0,0,0,3.32-19.73l-27-4.55c-.09-3.06-.1-6.61-.36-9.9a74.36,74.36,0,0,1,.41-15.65,22.86,22.86,0,0,1,2.66-7.36A19.09,19.09,0,0,1,772,334.51a22.69,22.69,0,0,1,8.65-.16c14.49,2.44,16.48,11.09,16.75,17.33a10.12,10.12,0,0,0,10.32,9.75,10,10,0,0,0,9.75-10.32l0-.2c-.75-19.6-12.93-32.81-33.44-36.27a42.34,42.34,0,0,0-16.49.37l-.1,0a39.44,39.44,0,0,0-24.61,17.86.09.09,0,0,1-.11.08,41.07,41.07,0,0,0-5.28,14.42,85.39,85.39,0,0,0-.67,20.27c.11,1.74.12,4.08.25,5.12l-19.92-3.36a10,10,0,0,0-3.33,19.72l22,3.71a109.47,109.47,0,0,1-2.2,11.29c0,.19-.2.57-.24.77a35.84,35.84,0,0,1-9.91,17.29l-6.31,6.14a10.07,10.07,0,0,0,6.53,17.22l19.22.91c1.1.08,2.3.19,3.38.37A29.31,29.31,0,0,1,758.6,452a48.19,48.19,0,0,0,35.26,9.19l6.94-.86A10,10,0,0,0,809.48,449.14Z" transform="translate(-8.47 -33.76)"/><path d="M595.14,270.1a135.47,135.47,0,0,0-81.27-116.32l50.32-88.19c0-.1.1-.1.1-.2a20.38,20.38,0,0,0-8.3-27.7,19.83,19.83,0,0,0-14.3-1.9l-16.4,3.8a254.53,254.53,0,0,1-100.6,2.78l-48.5-8.31a20.47,20.47,0,0,0-23.6,16.69,19.91,19.91,0,0,0,2.2,13.1c0,.1.1.1.1.2l50.78,89.81A135.29,135.29,0,0,0,324.54,270l-9.93,169.2a10,10,0,0,0,9.29,10.5h.6l270.4.06a10,10,0,0,0,10-9.9v-.6ZM372.19,54.45a.9.9,0,0,1,.1-.5c.2-.2.3-.2.4-.2l48.5,8.31a275.32,275.32,0,0,0,108.5-3l16.3-3.8a.37.37,0,0,1,.5.2.76.76,0,0,1,.1.4l-52,91.29-2.3-.6c-2-.5-4.1-.9-6.2-1.4l7.31-33.5a10,10,0,1,0-19.5-4.3l-7.71,35.29c-2.1-.1-4.3-.2-6.4-.2-1.3,0-2.7,0-4,.1l-16.39-51.7a10,10,0,0,0-19.1,5.89c0,.1,0,.1.1.2l15.19,47.81c-3.6.7-7.1,1.4-10.7,2.4Zm-37,375.4,9.33-158.6A115.57,115.57,0,0,1,466.76,162.77a113.35,113.35,0,0,1,20.8,3.21A115.71,115.71,0,0,1,575.14,271.3l9.27,158.6Z" transform="translate(-8.47 -33.76)"/><path d="M517.13,352.18a9.91,9.91,0,0,0-12.4-6.6l-6.8,2.1a28.61,28.61,0,0,1-21.3-1.8,48.92,48.92,0,0,0-22.2-5.31c-1.3,0-2.6.1-4.1.2a57.19,57.19,0,0,0,4.3-17.2c0-.3.1-.8.1-1,.3-4.5.5-8.5.4-13.5h25.6a10,10,0,1,0,0-20h-27.4c-.6-3-1.2-6.5-2-9.7a74.26,74.26,0,0,1-2.2-15.5,22.54,22.54,0,0,1,1.41-7.7,19.08,19.08,0,0,1,10.6-10.8,22.51,22.51,0,0,1,8.5-1.6c14.7,0,18.1,8.21,19.4,14.31a10,10,0,0,0,19.7-3.9V254c-4-19.2-18.2-30.2-39-30.21a42.45,42.45,0,0,0-16.2,3.1h-.1a39.42,39.42,0,0,0-21.3,21.7.1.1,0,0,1-.1.1,40.87,40.87,0,0,0-2.81,15.1,85.33,85.33,0,0,0,2.7,20.1c.4,1.7.8,4,1.1,5h-20.2a10,10,0,0,0,0,20h22.3a109,109,0,0,1-.3,11.5c0,.2-.1.6-.1.8a35.85,35.85,0,0,1-6.9,18.7l-5.2,7.09a10.07,10.07,0,0,0,9.29,15.91l19.1-2.3c1.1-.1,2.3-.2,3.4-.2a29.27,29.27,0,0,1,13,3.1,48.13,48.13,0,0,0,36.3,3.21l6.7-2A10,10,0,0,0,517.13,352.18Z" transform="translate(-8.47 -33.76)"/></svg>