<?xml version="1.0" encoding="utf-8"?>
<!-- Generator: Adobe Illustrator 16.0.0, SVG Export Plug-In . SVG Version: 6.00 Build 0)  -->
<!DOCTYPE svg PUBLIC "-//W3C//DTD SVG 1.1//EN" "http://www.w3.org/Graphics/SVG/1.1/DTD/svg11.dtd">
<svg version="1.1" id="Layer_1" xmlns="http://www.w3.org/2000/svg" xmlns:xlink="http://www.w3.org/1999/xlink" x="0px" y="0px"
	 width="841.89px" height="595.28px" viewBox="0 0 841.89 595.28" enable-background="new 0 0 841.89 595.28" xml:space="preserve">
<g>
	<path fill="current" d="M676.492,187.525c-3.821-22.577-12.063-43.174-25.745-61.497c-28.238-37.819-66.466-56.853-113.229-58.657
		c-17.771-0.686-35.192,2.563-52.051,8.72c-14.113,5.153-26.986,12.368-38.95,21.33c-1.034,0.774-1.798,1.382-2.319,1.926
		l-0.004-0.003l-74.838,74.837l50.505,50.504l57.022-57.022c0.071,0.109,0.137,0.194,0.21,0.308c0.287-0.495,0.481-0.857,0.65-1.168
		l12.175-12.176c6.979-5.569,14.804-9.873,23.664-12.495c15.962-4.724,31.908-4.366,47.51,1.898
		c23.182,9.308,38.232,26.329,43.773,50.356c5.874,25.458-0.285,48.58-19.026,67.466L420.23,427.54c0,0-19.924-19.937-28.3-28.286
		l47.32-47.319l-50.503-50.505l-47.351,47.353c-7.514-7.516-15.027-15.03-22.539-22.547l47.347-47.348l-50.504-50.504
		l-47.269,47.268c-4.578-4.603-9.172-9.191-13.746-13.8c-18.741-18.886-24.9-42.008-19.026-67.466
		c5.542-24.027,20.593-41.048,43.775-50.356c15.6-6.264,31.547-6.622,47.508-1.898c7.391,2.187,14.046,5.565,20.105,9.849
		l49.827-49.827c1.369-1.351,1.369-1.351-2.865-4.733c-11.965-8.961-24.838-16.177-38.951-21.33
		c-16.859-6.157-34.28-9.406-52.05-8.72c-46.765,1.805-84.991,20.838-113.231,58.657c-13.681,18.323-21.923,38.92-25.745,61.497
		c-3.763,22.227-2.244,44.052,4.107,65.475c7.464,25.18,21.784,46.133,40.389,64.601c3.003,2.981,5.989,5.981,8.99,8.963
		l-47.327,47.328l50.504,50.504l47.4-47.399c7.518,7.51,15.028,15.029,22.544,22.542l-47.401,47.4l50.504,50.505l47.403-47.403
		c10.521,10.523,21.046,21.046,31.57,31.567c14.52,14.519,29.022,29.055,43.543,43.573c1.952,1.95,3.972,3.982,3.972,3.982
		s156.866-157.065,211.765-211.562c18.606-18.468,32.926-39.421,40.39-64.601C678.736,231.577,680.255,209.752,676.492,187.525
		L676.492,187.525z"/>
</g>
</svg>
