<svg id="Capa_1" enable-background="new 0 0 511.999 511.999" height="512" viewBox="0 0 511.999 511.999" width="512" xmlns="http://www.w3.org/2000/svg"><g><path d="m156.285 411.457c31.332 0 56.822-25.49 56.822-56.822s-25.49-56.822-56.822-56.822-56.822 25.49-56.822 56.822 25.49 56.822 56.822 56.822zm0-98.644c23.061 0 41.822 18.761 41.822 41.822s-18.761 41.822-41.822 41.822-41.822-18.761-41.822-41.822 18.761-41.822 41.822-41.822z"/><path d="m480.07 324.197c-9.158-9.004-19.668-16.158-31.059-21.286l5.791-3.378c8.747-5.102 14.18-14.561 14.18-24.688v-37.592c0-11.864-8.901-21.713-20.704-22.91l-79.71-8.083c-4.116-.415-7.801 2.584-8.219 6.705-.417 4.121 2.585 7.801 6.705 8.219l35.059 3.555v22.911c0 15.901 12.936 28.837 28.837 28.837h22.927c-.513 4.174-2.955 7.943-6.634 10.089l-16.997 9.915c-.004.003-.008.005-.012.008-8.118-1.945-16.518-2.952-25.066-2.952-27.943 0-54.314 10.695-74.353 30.124-.587-.148-1.198-.235-1.831-.235h-19.096c-6.87-33.936-24.967-64.859-51.417-87.631-28.389-24.439-64.679-37.899-102.187-37.899-24.592 0-48.48 5.712-70.012 16.474v-24.58-10.057h138.272c5.867 0 11.383 2.285 15.532 6.434l15.319 15.319c6.003 6.004 13.962 9.782 22.409 10.639l61.471 6.233c4.114.415 7.801-2.584 8.219-6.705s-2.585-7.801-6.705-8.219l-28.279-2.868-36.395-120.032c5.034-1.662 8.681-6.403 8.681-11.987v-24.164c0-6.962-5.665-12.627-12.627-12.627h-92.924c-4.142 0-7.5 3.358-7.5 7.5s3.358 7.5 7.5 7.5h90.551v19.418h-195.291v-19.418h74.74c4.142 0 7.5-3.358 7.5-7.5s-3.358-7.5-7.5-7.5h-77.113c-6.962 0-12.627 5.665-12.627 12.627v24.164c0 6.673 5.207 12.139 11.769 12.584v140.771c0 .338.03.668.073.994-7.651 4.944-14.916 10.573-21.697 16.871-28.911 26.855-46.528 63.234-49.604 102.437-.332 4.224 1.13 8.432 4.008 11.545 2.881 3.116 6.965 4.902 11.207 4.902h15.497c2.134 67.398 57.62 121.572 125.527 121.572 50.943 0 94.897-30.488 114.581-74.175h52.54c4.334 41.627 39.347 73.569 81.764 73.569 42.055 0 77.401-32.085 81.758-73.569h17.572c2.013 0 3.941-.809 5.352-2.245 1.41-1.436 2.184-3.379 2.147-5.391-.513-28.126-11.852-54.487-31.929-74.225zm-62.956-76.547v-21.39l29.652 3.007c4.114.417 7.217 3.85 7.217 7.986v24.234h-23.032c-7.63 0-13.837-6.207-13.837-13.837zm-260.949-82.907h-36.927v-42.462c0-5.628 4.578-10.206 10.206-10.206 14.734 0 26.722 11.987 26.722 26.722v25.946zm123.154 32.467c-5.019-.509-9.748-2.753-13.315-6.321l-15.319-15.319c-6.982-6.982-16.265-10.827-26.139-10.827h-53.38v-25.947c0-23.005-18.716-41.722-41.722-41.722-13.898 0-25.206 11.308-25.206 25.206v42.462h-17.965v-83.558h174.362l35.704 117.752zm-206.324 84.742 6.505 6.505c1.464 1.465 3.384 2.197 5.303 2.197s3.839-.732 5.303-2.197c2.929-2.929 2.929-7.677 0-10.606l-6.505-6.505c17.687-15.455 40.322-25.375 65.183-27.049v9.248c0 4.142 3.358 7.5 7.5 7.5s7.5-3.358 7.5-7.5v-9.248c24.861 1.673 47.496 11.594 65.183 27.049l-6.505 6.505c-2.929 2.929-2.929 7.678 0 10.606 1.464 1.464 3.384 2.197 5.303 2.197s3.839-.732 5.303-2.197l6.505-6.505c15.454 17.687 25.375 40.322 27.049 65.183h-9.249c-4.142 0-7.5 3.358-7.5 7.5s3.358 7.5 7.5 7.5h9.249c-1.673 24.861-11.594 47.496-27.049 65.183l-6.505-6.505c-2.929-2.93-7.678-2.929-10.606 0-2.929 2.929-2.929 7.678 0 10.606l6.505 6.505c-17.687 15.455-40.322 25.375-65.183 27.049v-9.249c0-4.142-3.358-7.5-7.5-7.5s-7.5 3.358-7.5 7.5v9.249c-24.861-1.673-47.496-11.594-65.183-27.049l6.505-6.505c2.929-2.929 2.929-7.678 0-10.606-2.929-2.929-7.678-2.929-10.606 0l-6.505 6.505c-16.171-18.508-26.284-42.433-27.227-68.657h9.427c4.142 0 7.5-3.358 7.5-7.5s-3.358-7.5-7.5-7.5h-8.965c2.326-23.494 12.033-44.849 26.765-61.709zm208.888 72.683c0-69.255-56.343-125.598-125.598-125.598-65.557 0-119.535 50.49-125.113 114.624h-15.911c-.04 0-.114 0-.193-.086-.076-.082-.071-.149-.068-.189 2.781-35.44 18.712-68.333 44.858-92.619 26.285-24.415 60.529-37.86 96.427-37.86 33.917 0 66.732 12.169 92.4 34.267 25.401 21.868 42.282 52.035 47.534 84.945.581 3.64 3.72 6.318 7.406 6.318h14.472c-11.038 15.451-17.72 33.517-19.368 52.621h-22.239c3.502-11.533 5.393-23.761 5.393-36.423zm123.286 109.992c-34.144 0-62.413-25.312-66.66-58.569h30.047c3.95 16.759 19.046 28.964 36.613 28.964 17.416 0 32.649-12.259 36.611-28.964h30.051c-4.272 33.147-32.809 58.569-66.662 58.569zm-20.899-58.569h41.777c-3.448 8.232-11.645 13.964-20.878 13.964-9.318 0-17.473-5.708-20.899-13.964zm-70.48-15c2.141-21.281 11.566-40.997 26.995-56.165 17.281-16.989 40.146-26.346 64.384-26.346s47.103 9.356 64.384 26.346c15.429 15.168 24.854 34.884 26.995 56.165z"/></g></svg>